Coordinates
version=1
nRows=29
nColumns=24
inDegrees=yes

Units are S.I. units (second, meters, Newtons, ...)
If the header above contains a line with 'inDegrees', this indicates whether rotational values are in degrees (yes) or radians (no).

endheader
time	pelvis_tilt	pelvis_list	pelvis_rotation	pelvis_tx	pelvis_ty	pelvis_tz	hip_flexion_r	hip_adduction_r	hip_rotation_r	knee_angle_r	ankle_angle_r	subtalar_angle_r	mtp_angle_r	hip_flexion_l	hip_adduction_l	hip_rotation_l	knee_angle_l	ankle_angle_l	subtalar_angle_l	mtp_angle_l	lumbar_extension	lumbar_bending	lumbar_rotation
      0.00000000	     -2.72104430	      0.13516288	      5.92083853	     -1.43178045	      0.77700484	      0.05467157	     30.52233676	     -4.24299865	    -11.29014951	    -16.91605786	      0.80453721	      3.67551726	      0.00000000	      0.45074529	      1.89901894	      2.81432336	    -22.43229348	     16.08707557	     -0.68252916	      0.00000000	     -6.64222440	     -2.94752685	     -3.41978140
      0.00500000	     -2.86246051	      0.36418678	      5.81191797	     -1.42637193	      0.77608190	      0.05507925	     30.65210637	     -4.42674933	    -11.69021607	    -15.53116307	      0.93086983	      3.77375838	      0.00000000	      0.18829661	      2.09288246	      2.66982813	    -22.54245823	     16.15714563	     -0.71237785	      0.00000000	     -6.42981586	     -3.23331742	     -3.39591099
      0.01000000	     -2.65105833	      0.39657732	      5.94190908	     -1.42066637	      0.77577982	      0.05530222	     30.17264897	     -4.48420055	    -12.43149196	    -13.85648288	      0.83199946	      4.47447196	      0.00000000	     -0.54044099	      2.01568518	      2.81690507	    -22.43559720	     16.14780286	     -0.53899578	      0.00000000	     -6.65784840	     -3.19572353	     -3.52288313
      0.01500000	     -2.76592393	      0.58145890	      5.89589632	     -1.41520746	      0.77492952	      0.05571683	     30.24577128	     -4.61698889	    -12.80856481	    -12.57897241	      0.96241735	      4.68293527	      0.00000000	     -0.82264069	      2.13975811	      2.71415150	    -22.52403039	     16.16859396	     -0.51520071	      0.00000000	     -6.52149772	     -3.40080253	     -3.49427008
      0.02000000	     -2.83377670	      0.72877952	      5.81062227	     -1.40962969	      0.77411509	      0.05620940	     30.29262781	     -4.68293426	    -13.21299185	    -11.42841582	      1.07736089	      4.88345614	      0.00000000	     -1.16269236	      2.22216573	      2.64860745	    -22.62802922	     16.17315602	     -0.46745686	      0.00000000	     -6.39497610	     -3.57921308	     -3.47843222
      0.02500000	     -2.45459610	      0.64650858	      5.87279421	     -1.40351489	      0.77393510	      0.05660230	     29.73067707	     -4.58231757	    -14.18506962	    -10.23715418	      1.24608483	      5.83562118	      0.00000000	     -2.06546454	      1.97296159	      2.73276140	    -22.57476013	     16.14007949	     -0.08465252	      0.00000000	     -6.72050545	     -3.39708401	     -3.61561471
      0.03000000	     -2.54523824	      0.78436658	      5.77885173	     -1.39788787	      0.77308063	      0.05714562	     29.87376170	     -4.62356395	    -14.49504643	     -9.40961536	      1.42612562	      5.95825057	      0.00000000	     -2.35634154	      2.04593009	      2.66981772	    -22.71836612	     16.14071787	     -0.05435297	      0.00000000	     -6.57522122	     -3.55459295	     -3.60631976
      0.03500000	     -2.29191328	      0.74253186	      5.80185259	     -1.39177516	      0.77269301	      0.05761139	     29.56541151	     -4.55379359	    -15.32221847	     -8.63998924	      1.81993065	      6.90234011	      0.00000000	     -3.07523700	      1.84877089	      2.68956318	    -22.75887480	     16.10799063	      0.31544586	      0.00000000	     -6.75286324	     -3.44943294	     -3.71238770
      0.04000000	     -2.36201140	      0.84045239	      5.67926486	     -1.38603865	      0.77184657	      0.05818840	     29.74430074	     -4.53885675	    -15.52145208	     -8.11836797	      1.96447752	      6.94633464	      0.00000000	     -3.36776250	      1.88952328	      2.69014070	    -22.94929999	     16.08188834	      0.34026156	      0.00000000	     -6.61978495	     -3.55736133	     -3.71418018
      0.04500000	     -2.38911127	      0.91386497	      5.55927273	     -1.38026720	      0.77102238	      0.05866537	     29.92401351	     -4.51891846	    -15.62949946	     -7.80805554	      2.05315205	      6.96172502	      0.00000000	     -3.68605524	      1.91123494	      2.73225364	    -23.18956837	     16.03910112	      0.36834375	      0.00000000	     -6.51745538	     -3.56315357	     -3.72494163
      0.05000000	     -2.21497243	      0.85667311	      5.61763688	     -1.37394727	      0.77055917	      0.05926499	     29.65529694	     -4.38108375	    -15.90045050	     -7.30274582	      2.61722899	      7.36995897	      0.00000000	     -4.32716483	      1.69072476	      2.88188185	    -23.20858132	     15.76079382	      0.69861023	      0.00000000	     -6.57735450	     -3.49855537	     -3.80208172
      0.05500000	     -2.22135429	      0.90993946	      5.54717873	     -1.36798735	      0.76979141	      0.05967713	     29.80018204	     -4.37207789	    -15.94101036	     -7.21033680	      2.64990178	      7.37147537	      0.00000000	     -4.65740145	      1.67822290	      2.92184602	    -23.45379910	     15.72928788	      0.71329009	      0.00000000	     -6.46936059	     -3.47567242	     -3.82083058
      0.06000000	     -1.98624688	      0.90147346	      5.45334488	     -1.36159048	      0.76931302	      0.06018822	     29.64926266	     -4.26564189	    -16.08208389	     -7.22657342	      3.18078572	      7.58274704	      0.00000000	     -5.36841388	      1.56139348	      3.02726305	    -23.51018136	     15.48909036	      0.94059954	      0.00000000	     -6.59806196	     -3.37435188	     -3.98575440
      0.06500000	     -1.97716449	      0.91559305	      5.43699825	     -1.35537091	      0.76856236	      0.06064307	     29.74948395	     -4.23544381	    -16.02658886	     -7.32363013	      3.18372961	      7.58837901	      0.00000000	     -5.71215361	      1.48617706	      3.11297585	    -23.76970041	     15.43080183	      0.96253001	      0.00000000	     -6.45885459	     -3.35304005	     -4.00397943
      0.07000000	     -1.90061108	      0.85790666	      5.33554638	     -1.34919890	      0.76784844	      0.06111852	     29.90192725	     -4.11530805	    -15.83173334	     -7.75024959	      3.29961188	      7.54355162	      0.00000000	     -6.14262343	      1.37102851	      3.35681498	    -24.02166507	     15.22464652	      1.08224083	      0.00000000	     -6.46237481	     -3.16348755	     -4.08644077
      0.07500000	     -1.80378324	      0.83131185	      5.29108949	     -1.34281179	      0.76717200	      0.06156173	     29.98776113	     -4.04397934	    -15.60943120	     -8.23426668	      3.47226746	      7.44054012	      0.00000000	     -6.61270086	      1.25991530	      3.54718305	    -24.23763414	     14.98634179	      1.19498906	      0.00000000	     -6.42101941	     -3.03017375	     -4.19107241
      0.08000000	     -1.67266095	      0.81650299	      5.23180666	     -1.33630913	      0.76653544	      0.06198147	     30.04816971	     -3.97655922	    -15.30290100	     -8.83932626	      3.68501379	      7.26337313	      0.00000000	     -7.13142943	      1.16748992	      3.73971827	    -24.44083981	     14.67541950	      1.30954585	      0.00000000	     -6.40652838	     -2.91016495	     -4.33393602
      0.08500000	     -1.55129447	      0.77688434	      5.20319150	     -1.32978545	      0.76587032	      0.06237981	     30.12201014	     -3.90247252	    -14.94050096	     -9.53135865	      3.75097141	      7.11755427	      0.00000000	     -7.60404435	      1.04662276	      3.95365685	    -24.70524299	     14.39798269	      1.39732265	      0.00000000	     -6.38667629	     -2.74864205	     -4.44712442
      0.09000000	     -1.41446995	      0.73912702	      5.15296741	     -1.32316451	      0.76521472	      0.06279136	     30.19778114	     -3.82035920	    -14.52700498	    -10.33991747	      3.79956040	      6.90299228	      0.00000000	     -8.09995221	      0.93184764	      4.16946560	    -24.97330058	     14.06476179	      1.48768642	      0.00000000	     -6.36252841	     -2.58520733	     -4.58287136
      0.09500000	     -1.25509530	      0.70443429	      5.07766397	     -1.31650081	      0.76459048	      0.06322561	     30.28563671	     -3.72101270	    -14.02806796	    -11.28594205	      3.81889922	      6.59097065	      0.00000000	     -8.61584549	      0.83484757	      4.37986212	    -25.23969482	     13.64412394	      1.57613966	      0.00000000	     -6.36502116	     -2.41317253	     -4.74710598
      0.10000000	     -0.99723539	      0.94490982	      4.57978202	     -1.30960830	      0.76411498	      0.06402606	     30.07628204	     -3.44279864	    -11.80265414	    -11.78888787	      3.27506635	      4.04476585	      0.00000000	     -9.53953308	      1.16025654	      4.49844524	    -24.97363288	     12.36147728	      0.59743995	      0.00000000	     -6.47303714	     -2.61040042	     -4.58253117
      0.10500000	     -0.86966235	      0.81646724	      4.60140249	     -1.30285794	      0.76346003	      0.06441844	     30.18025263	     -3.29321771	    -11.42911678	    -12.82172698	      3.07272579	      3.92229652	      0.00000000	     -9.93893090	      0.95254126	      4.73940895	    -25.38423716	     12.07539137	      0.71312789	      0.00000000	     -6.42424459	     -2.32360673	     -4.68739563
      0.11000000	     -0.73200689	      0.69992660	      4.64189926	     -1.29605894	      0.76282384	      0.06480823	     30.28575675	     -3.16399675	    -11.02766823	    -13.93099521	      2.84358538	      3.75030939	      0.00000000	    -10.33158531	      0.73737921	      4.91379342	    -25.79478068	     11.72153613	      0.82522750	      0.00000000	     -6.39267239	     -2.06062390	     -4.80523322
      0.11500000	     -0.56684514	      0.58320050	      4.60773510	     -1.28928509	      0.76218546	      0.06526350	     30.43003446	     -2.99315377	    -10.61316560	    -15.16391777	      2.55999217	      3.47261460	      0.00000000	    -10.72108707	      0.55219269	      5.03223753	    -26.27104051	     11.22432231	      0.95708581	      0.00000000	     -6.39648425	     -1.78102342	     -4.96132073
      0.12000000	     -0.58784630	      0.53429377	      4.21086705	     -1.28255068	      0.76137431	      0.06651220	     30.60957075	     -2.42853413	     -8.83852778	    -15.90395746	      1.17315972	      0.49783010	      0.00000000	    -10.83270686	      0.38468416	      4.28328724	    -26.79181130	      9.80895560	      1.09854895	      0.00000000	     -6.18246770	     -1.73901726	     -5.00451718
      0.12500000	     -0.40810394	      0.38443211	      4.25735540	     -1.27569642	      0.76084734	      0.06693215	     30.66937243	     -2.23933636	     -8.48887629	    -17.08417659	      0.86394940	      0.36396068	      0.00000000	    -11.17924329	      0.16506115	      4.45852635	    -27.36234050	      9.44774473	      1.19947831	      0.00000000	     -6.21536521	     -1.41832039	     -5.06880506
      0.13000000	     -0.20758326	      0.23272416	      4.22444556	     -1.26888484	      0.76030038	      0.06745362	     30.78251006	     -2.02066744	     -8.20130706	    -18.38019908	      0.46345426	      0.09637958	      0.00000000	    -11.47779038	     -0.05724485	      4.44811599	    -28.03155053	      8.81735533	      1.33001331	      0.00000000	     -6.26218946	     -1.10034627	     -5.17977717
      0.13500000	     -0.24472151	     -0.15802911	      4.01988050	     -1.26212762	      0.75956938	      0.06899146	     30.88770701	     -1.16471441	     -6.96985198	    -18.97721880	     -1.43606127	     -3.12273257	      0.00000000	    -11.20142725	     -0.80104415	      3.18321365	    -29.09299876	      7.41898423	      2.18809026	      0.00000000	     -6.02695370	     -0.72267709	     -5.10766647
      0.14000000	     -0.06999369	     -0.35420334	      3.99754127	     -1.25531057	      0.75908253	      0.06964770	     31.00366371	     -0.89918981	     -6.85411709	    -20.22444336	     -1.91589583	     -3.42807833	      0.00000000	    -11.30175086	     -1.14439084	      2.83480967	    -29.96462922	      6.32966123	      2.39576781	      0.00000000	     -6.05885930	     -0.39944596	     -5.23338883
